<?xml version="1.0" encoding="UTF-8"?>
<!DOCTYPE svg PUBLIC "-//W3C//DTD SVG 1.1//EN" "http://www.w3.org/Graphics/SVG/1.1/DTD/svg11.dtd">
<!-- Creator: CorelDRAW X7 -->
<svg xmlns="http://www.w3.org/2000/svg" xml:space="preserve" width="300px" height="84px" version="1.1" style="shape-rendering:geometricPrecision; text-rendering:geometricPrecision; image-rendering:optimizeQuality; fill-rule:evenodd; clip-rule:evenodd"
viewBox="0 0 30000 8394"
 xmlns:xlink="http://www.w3.org/1999/xlink">
 <defs>
  <style type="text/css">
   <![CDATA[
    .fil0 {fill:#FEFEFE}
    .fil1 {fill:#FEFEFE;fill-rule:nonzero}
   ]]>
  </style>
 </defs>
 <g id="Слой_x0020_1">
  <metadata id="CorelCorpID_0Corel-Layer"/>
  <path class="fil0" d="M6384 2128l-1668 462c75,162 122,334 140,507l1668 -462c-34,-174 -81,-343 -140,-507l0 0zm-517 3155l-759 133 -240 714c-191,107 -393,195 -604,264l-1108 -3248 3062 1603c-101,189 -218,368 -351,534zm-1995 -5283l-452 1671c175,17 347,63 508,137l452 -1671c-164,-58 -334,-105 -508,-137zm-1277 4724l-451 1671c164,58 333,104 508,137l451 -1671c-174,-18 -346,-64 -508,-137l0 0zm-1466 -4005l1213 1235c-43,30 -85,62 -126,97 -95,82 -179,174 -250,271l-1212 -1234c115,-133 240,-255 375,-369l0 0zm539 2715l-1668 462c34,174 81,344 140,507l1668 -462c-75,-162 -122,-333 -140,-507l0 0z"/>
  <path class="fil1" d="M8919 6304l-539 1783c-43,142 -77,225 -103,247 -25,23 -94,35 -207,35l-201 0 -503 -1675 -415 1393c-43,142 -79,225 -107,247 -28,23 -113,35 -255,35l-149 0 -628 -2065c188,0 300,11 336,34 36,23 74,104 115,243l394 1409 507 -1686c212,0 338,11 379,34 40,23 82,104 124,243l423 1409 394 -1409c38,-139 76,-220 113,-243 38,-23 145,-34 322,-34l0 0zm1663 2065l-1083 0c-175,0 -277,-12 -306,-36 -30,-25 -44,-110 -44,-258l0 -1473c0,-148 14,-234 44,-258 29,-24 131,-36 306,-36l793 0c145,0 229,12 253,36 24,24 37,110 37,258l-1083 0 0 571 696 0c143,0 226,12 250,36 24,25 36,108 36,250l-982 0 0 616 769 0c158,0 250,12 275,36 26,24 39,110 39,258l0 0zm1968 -600c0,402 -273,604 -821,604l-483 0c-167,0 -264,-12 -292,-37 -28,-24 -42,-108 -42,-253l0 -1481c0,-148 14,-234 42,-258 28,-24 125,-36 292,-36l471 0c513,0 769,180 769,539 0,242 -91,384 -274,427 105,29 189,94 254,193 56,88 84,189 84,302l0 0zm-410 -874c0,-196 -137,-293 -411,-293l-463 0 0 583 483 0c196,0 310,-12 342,-36 33,-24 49,-108 49,-254zm48 870c0,-204 -146,-306 -439,-306l-483 0 0 624 475 0c223,0 353,-13 390,-40 38,-27 57,-120 57,-278l0 0zm1542 -370c0,142 -11,225 -31,249 -20,24 -90,36 -211,36l-704 0c0,-142 9,-225 28,-249 19,-24 83,-36 193,-36l725 0zm2785 974c-177,0 -280,-12 -310,-36 -29,-25 -44,-106 -44,-246l0 -1353 -592 1401c-48,116 -84,183 -107,204 -22,20 -79,30 -170,30l-178 0 -692 -1635 0 1635c-175,0 -276,-12 -306,-37 -29,-24 -44,-105 -44,-245l0 -1783 193 0c164,0 263,11 298,32 35,21 80,98 137,229l495 1168c16,37 48,126 97,265 24,-69 56,-158 96,-265l499 -1168c57,-131 100,-208 131,-229 31,-21 117,-32 260,-32l237 0 0 2065 0 0zm2254 0c-185,0 -296,-9 -334,-26 -38,-18 -76,-82 -116,-191l-69 -186 -1010 0 -65 186c-37,107 -76,170 -114,189 -39,18 -151,28 -337,28l685 -1832c43,-115 79,-183 108,-203 30,-20 105,-30 226,-30l233 0 793 2065zm-608 -660l-418 -1172 -415 1172 833 0zm2283 56c0,172 -58,310 -173,415 -142,128 -362,193 -660,193l-693 0c0,-153 12,-242 36,-268 25,-26 106,-38 246,-38l403 0c255,0 401,-9 438,-28 38,-19 57,-100 57,-242 0,-137 -108,-235 -322,-294 -199,-48 -397,-98 -596,-149 -217,-86 -328,-232 -330,-438 -8,-408 267,-612 825,-612l696 0c0,147 -11,234 -34,259 -22,26 -102,39 -239,39l-435 0c-236,0 -372,10 -409,32 -36,21 -54,110 -54,265 0,111 107,191 322,242 360,86 560,138 600,157 215,97 322,252 322,467l0 0zm1566 -1457c0,147 -12,233 -35,257 -22,25 -105,37 -247,37l-310 0 0 1767c-172,0 -272,-12 -302,-36 -30,-25 -44,-108 -44,-250l0 -1481 -592 0c0,-148 11,-234 32,-258 22,-24 97,-36 226,-36l1272 0 0 0zm1678 2061l-1083 0c-174,0 -276,-12 -306,-36 -29,-25 -44,-110 -44,-258l0 -1473c0,-148 15,-234 44,-258 30,-24 132,-36 306,-36l793 0c145,0 230,12 254,36 24,24 36,110 36,258l-1083 0 0 571 697 0c142,0 225,12 249,36 24,25 37,108 37,250l-983 0 0 616 769 0c158,0 251,12 276,36 26,24 38,110 38,258l0 0zm1993 0c-255,0 -405,-7 -451,-20 -67,-19 -152,-86 -254,-202l-535 -608c-27,-29 -40,-64 -40,-104 0,-83 41,-125 125,-125l249 0c239,0 378,-15 417,-46 39,-31 58,-136 58,-316 0,-234 -161,-350 -483,-350l-394 0 0 1771c-178,0 -281,-12 -310,-36 -30,-25 -45,-110 -45,-258l0 -1477c0,-145 15,-230 45,-254 29,-24 132,-36 310,-36l378 0c572,0 857,213 857,640 0,418 -253,628 -760,628l833 793zm640 -181c0,137 -82,205 -246,205 -166,0 -249,-68 -249,-205 0,-140 83,-210 249,-210 164,0 246,70 246,210z"/>
  <path class="fil1" d="M28382 8394c-239,0 -384,-8 -435,-24 -59,-16 -137,-79 -234,-189l-672 -748c-26,-30 -40,-64 -40,-101 0,-40 14,-75 40,-105l809 -893 479 0 -978 982 1031 1078 0 0zm-1413 0c-177,0 -280,-12 -310,-36 -29,-24 -44,-110 -44,-257l0 -1767c177,0 280,10 310,32 29,21 44,98 44,229l0 1799 0 0zm3031 0l-1570 0c0,-166 5,-271 16,-314 8,-34 36,-83 85,-144l1030 -1309 -865 0c-132,0 -209,-12 -232,-38 -22,-26 -34,-112 -34,-260l1530 0c0,161 -4,263 -13,304 -7,42 -34,91 -80,147l-1075 1333 918 0c145,0 230,11 254,34 24,23 36,105 36,247l0 0z"/>
  <path class="fil1" d="M12376 4973l0 -596 416 0c296,0 469,-207 469,-452 0,-244 -168,-451 -469,-451l-603 0 0 1498 187 0 0 1zm393 -762l-393 0 0 -571 393 0c178,0 299,117 299,285 0,169 -121,286 -299,286zm1580 762l0 -746c0,-263 -191,-366 -421,-366 -177,0 -316,58 -433,179l78 117c97,-103 203,-150 333,-150 157,0 274,82 274,229l0 195c-88,-101 -211,-148 -359,-148 -185,0 -380,114 -380,357 0,236 195,360 380,360 146,0 269,-52 359,-151l0 124 169 0 0 0zm-468 -95c-157,0 -267,-99 -267,-236 0,-139 110,-238 267,-238 120,0 234,45 299,135l0 204c-65,90 -179,135 -299,135zm1189 122c312,0 496,-135 496,-317 0,-180 -188,-256 -314,-266 128,-15 292,-103 292,-265 0,-184 -207,-291 -499,-289 -198,0 -344,69 -445,173l88 103c92,-94 211,-139 364,-139 180,0 317,69 317,173 0,123 -142,182 -322,182l-242 0 0 137 242 0c191,0 342,45 342,179 0,115 -126,189 -319,189 -162,0 -306,-49 -407,-146l-83 108c108,108 272,178 490,178l0 0zm1305 0c286,0 483,-221 483,-571 0,-353 -197,-568 -483,-568 -152,0 -287,78 -366,188l0 -162 -168 0 0 1499 168 0 0 -578c88,122 218,192 366,192zm-42 -151c-133,0 -265,-81 -324,-175l0 -490c59,-95 191,-173 324,-173 218,0 348,178 348,418 0,240 -130,420 -348,420zm1640 124l0 -746c0,-263 -191,-366 -420,-366 -178,0 -317,58 -434,179l79 117c96,-103 202,-150 332,-150 158,0 274,82 274,229l0 195c-87,-101 -211,-148 -359,-148 -185,0 -380,114 -380,357 0,236 195,360 380,360 146,0 269,-52 359,-151l0 124 169 0 0 0zm-468 -95c-157,0 -267,-99 -267,-236 0,-139 110,-238 267,-238 120,0 234,45 299,135l0 204c-65,90 -179,135 -299,135zm1279 -29c-232,0 -362,-198 -362,-422 0,-218 130,-416 362,-416 231,0 359,198 359,416 0,224 -128,422 -359,422zm0 151c335,0 535,-261 535,-573 0,-308 -200,-566 -508,-566 -193,0 -330,107 -409,231 38,-184 135,-324 456,-369 184,-25 427,-71 427,-249l-164 0c0,45 -67,74 -306,110 -377,50 -568,267 -568,795 0,360 204,621 537,621zm1296 0c330,0 537,-257 537,-571 0,-315 -207,-568 -537,-568 -330,0 -537,253 -537,568 0,314 207,571 537,571zm0 -151c-231,0 -362,-198 -362,-420 0,-220 131,-418 362,-418 232,0 360,198 360,418 0,222 -128,420 -360,420zm1178 124l0 -937 317 0 0 -149 -800 0 0 149 314 0 0 937 169 0zm1491 0l-482 -594 480 -492 -213 0 -571 578 0 -578 -168 0 0 1086 168 0 0 -311 180 -177 391 488 215 0zm1048 0l0 -746c0,-263 -192,-366 -420,-366 -178,0 -317,58 -434,179l78 117c97,-103 203,-150 333,-150 157,0 274,82 274,229l0 195c-87,-101 -211,-148 -359,-148 -185,0 -380,114 -380,357 0,236 195,360 380,360 146,0 269,-52 359,-151l0 124 169 0zm-468 -95c-157,0 -267,-99 -267,-236 0,-139 110,-238 267,-238 119,0 234,45 299,135l0 204c-65,90 -180,135 -299,135zm1863 122c197,0 315,-81 398,-189l-113 -104c-72,97 -164,142 -276,142 -232,0 -375,-180 -375,-420 0,-240 143,-418 375,-418 112,0 204,43 276,141l113 -103c-83,-108 -201,-188 -398,-188 -324,0 -542,247 -542,568 0,323 218,571 542,571l0 0zm1481 -27l0 -746c0,-263 -191,-366 -421,-366 -177,0 -316,58 -433,179l78 117c97,-103 202,-150 333,-150 157,0 274,82 274,229l0 195c-88,-101 -211,-148 -360,-148 -184,0 -379,114 -379,357 0,236 195,360 379,360 146,0 270,-52 360,-151l0 124 169 0 0 0zm-468 -95c-157,0 -267,-99 -267,-236 0,-139 110,-238 267,-238 119,0 234,45 299,135l0 204c-65,90 -180,135 -299,135zm966 95l573 -845 0 845 169 0 0 -1086 -167 0 -568 830 0 -830 -169 0 0 1086 162 0zm683 -1407l-83 -72c-70,101 -179,162 -310,162 -132,0 -240,-63 -312,-162l-83 72c92,121 236,198 395,198 162,0 303,-77 393,-198l0 0zm762 1407l0 -937 317 0 0 -149 -800 0 0 149 314 0 0 937 169 0zm1384 0l0 -746c0,-263 -191,-366 -420,-366 -178,0 -317,58 -434,179l79 117c96,-103 202,-150 332,-150 158,0 274,82 274,229l0 195c-87,-101 -211,-148 -359,-148 -184,0 -380,114 -380,357 0,236 196,360 380,360 146,0 270,-52 359,-151l0 124 169 0zm-467 -95c-158,0 -268,-99 -268,-236 0,-139 110,-238 268,-238 119,0 233,45 298,135l0 204c-65,90 -179,135 -298,135z"/>
 </g>
</svg>
